
<svg version="1.1" viewBox="0 0 32 32" xmlns="http://www.w3.org/2000/svg" class='icon'>
<g transform="translate(0 -1)">
<title>icon 94 document file doc</title>
<desc>Created with Sketch.</desc>
<g fill="none" fill-rule="evenodd">
<path d="m21 13v-3l-6-7h-10.997c-1.1061 0-2.0028 0.89834-2.0028 2.0073v22.985c0 1.1086 0.89093 2.0073 1.9974 2.0073h15.005c1.1031 0 1.9974-0.89821 1.9974-1.9908v-2.0092h7.9932c1.6606 0 3.0068-1.3423 3.0068-2.9988v-7.0024c0-1.6562-1.336-2.9988-3.0068-2.9988h-7.9932zm-1 13v2.0066c0 0.54845-0.4477 0.9934-0.99996 0.9934h-15c-0.54525 0-0.99996-0.44568-0.99996-0.99546v-23.009c0-0.54019 0.44574-0.99546 0.99558-0.99546h10.004v4.9941c0 1.1194 0.8945 2.0059 1.9979 2.0059h4.0021v2h-7.9932c-1.6606 0-3.0068 1.3423-3.0068 2.9988v7.0024c0 1.6562 1.336 2.9988 3.0068 2.9988h7.9932zm-5-21.5v4.4912c0 0.55714 0.45065 1.0088 0.99674 1.0088h3.7032l-4.7-5.5zm-3.0054 9.5c-1.1016 0-1.9946 0.90018-1.9946 1.992v7.016c0 1.1002 0.90234 1.992 1.9946 1.992h17.011c1.1016 0 1.9946-0.90018 1.9946-1.992v-7.016c0-1.1002-0.90234-1.992-1.9946-1.992h-17.011zm0.0054385 2v7h2.9951c1.1073 0 2.0049-0.88655 2.0049-2.0059v-2.9882c0-1.1078-0.8939-2.0059-2.0049-2.0059h-2.9951zm1 1v5h2.001c0.55171 0 0.99896-0.44372 0.99896-0.99981v-3.0004c0-0.55218-0.44266-0.99981-0.99896-0.99981h-2.001zm7.0049-1c-1.1073 0-2.0049 0.88655-2.0049 2.0059v2.9882c0 1.1078 0.8939 2.0059 2.0049 2.0059h0.99024c1.1073 0 2.0049-0.88655 2.0049-2.0059v-2.9882c0-1.1078-0.8939-2.0059-2.0049-2.0059h-0.99024zm-0.0059249 1c-0.55171 0-0.99896 0.44372-0.99896 0.99981v3.0004c0 0.55218 0.44266 0.99981 0.99896 0.99981h1.0021c0.55171 0 0.99896-0.44372 0.99896-0.99981v-3.0004c0-0.55218-0.44266-0.99981-0.99896-0.99981h-1.0021zm9.001 4c-0.0031577 1.1166-0.89956 2-2.0049 2h-0.99024c-1.111 0-2.0049-0.89808-2.0049-2.0059v-2.9882c0-1.1194 0.89762-2.0059 2.0049-2.0059h0.99024c1.109 0 2.0017 0.89488 2.0049 2h-0.99999c0-0.55237-0.44266-1-0.99896-1h-1.0021c-0.55171 0-0.99896 0.44372-0.99896 0.99981v3.0004c0 0.55218 0.44266 0.99981 0.99896 0.99981h1.0021c0.55171 0 0.99896-0.44372 0.99896-0.99981l0.99999-1.925e-4h-7e-7z"/>
</g>
</g>
</svg>
