
<svg class="icon" enable-background="new 0 0 50 50" version="1.1" viewBox="0 0 50 50" xml:space="preserve" xmlns="http://www.w3.org/2000/svg">

	<path d="m1 14h3v2h-3v14h3v2h-3v14h3v4h42v-4h3v-14h-3v-2h3v-14h-3v-2h3v-14h-48v14zm43 34h-38v-2h38v2zm3-14v10h-44v-10h44zm-3-2h-38v-2h38v2zm3-14v10h-44v-10h44zm-3-2h-38v-2h38v2zm-41-14h44v10h-44v-10z"/>
	<rect x="6" y="5" width="2" height="4"/>
	<rect x="11" y="5" width="2" height="4"/>
	<rect x="16" y="5" width="2" height="4"/>
	<rect x="21" y="5" width="2" height="4"/>
	<rect x="42" y="6" width="2" height="2"/>
	<rect x="26" y="6" width="13" height="2"/>
	<rect x="6" y="21" width="2" height="4"/>
	<rect x="11" y="21" width="2" height="4"/>
	<rect x="16" y="21" width="2" height="4"/>
	<rect x="21" y="21" width="2" height="4"/>
	<rect x="42" y="22" width="2" height="2"/>
	<rect x="26" y="22" width="13" height="2"/>
	<rect x="6" y="37" width="2" height="4"/>
	<rect x="11" y="37" width="2" height="4"/>
	<rect x="16" y="37" width="2" height="4"/>
	<rect x="21" y="37" width="2" height="4"/>
	<rect x="42" y="38" width="2" height="2"/>
	<rect x="26" y="38" width="13" height="2"/>


</svg>
